<?xml version="1.0" standalone="no"?>
<!DOCTYPE svg PUBLIC "-//W3C//DTD SVG 20010904//EN"
 "http://www.w3.org/TR/2001/REC-SVG-20010904/DTD/svg10.dtd">
<svg version="1.0" xmlns="http://www.w3.org/2000/svg"
 width="300.000000pt" height="300.000000pt" viewBox="0 0 300.000000 300.000000"
 preserveAspectRatio="xMidYMid meet">
<metadata>
Created by potrace 1.10, written by Peter Selinger 2001-2011
</metadata>
<g transform="translate(0.000000,300.000000) scale(0.100000,-0.100000)"
fill="#000000" stroke="none">
<path d="M2423 2597 c-105 -106 -117 -127 -111 -193 l4 -39 7 40 c5 22 10 49
12 61 3 11 38 54 79 95 107 106 99 102 112 60 l12 -36 1 58 c1 31 -3 57 -7 57
-5 0 -54 -46 -109 -103z"/>
<path d="M2610 2620 c0 -6 -11 -15 -25 -20 -22 -8 -30 -20 -22 -35 4 -9 -218
-225 -228 -222 -12 4 -95 -77 -95 -93 0 -6 -10 -26 -22 -43 -15 -21 -17 -27
-5 -19 9 8 20 12 25 10 20 -7 127 -145 169 -216 51 -85 98 -220 114 -326 18
-114 6 -323 -25 -431 -45 -159 -136 -320 -243 -431 -51 -53 -194 -174 -207
-174 -2 0 -31 -15 -64 -34 -127 -72 -296 -113 -468 -115 -261 -3 -457 67 -643
228 -36 31 -80 72 -99 91 -49 51 -152 187 -146 192 2 3 -2 11 -11 18 -8 7 -15
17 -15 22 0 4 -15 41 -34 81 -146 308 -96 721 120 1004 62 81 173 189 237 230
23 15 44 30 47 33 14 14 98 54 172 81 273 100 558 86 803 -39 38 -20 73 -36
76 -37 9 0 144 -102 158 -119 10 -12 6 -21 -23 -51 l-35 -36 -72 56 c-84 65
-211 128 -319 158 -108 30 -351 30 -463 -1 -315 -86 -563 -335 -649 -652 -33
-121 -33 -349 0 -462 46 -156 121 -288 231 -401 79 -83 144 -129 271 -190 110
-54 193 -77 305 -86 259 -20 514 70 701 246 95 90 153 177 231 348 48 108 67
351 38 495 -18 89 -33 130 -92 245 -40 78 -65 115 -105 160 -29 31 -36 59 -18
70 6 3 10 10 10 15 0 5 -12 -3 -27 -17 -16 -14 -40 -30 -55 -35 -22 -8 -184
-172 -223 -227 -29 -40 -139 -150 -146 -146 -8 6 -114 -100 -108 -108 2 -3
-29 -39 -68 -80 -40 -41 -73 -77 -73 -79 0 -3 25 -30 57 -62 52 -52 57 -55 74
-40 48 43 66 159 32 210 l-16 26 183 181 183 182 11 -27 c7 -15 23 -40 37 -55
41 -45 84 -114 108 -173 18 -46 21 -49 17 -20 -14 98 -31 130 -116 224 l-53
57 61 62 61 61 25 -23 c29 -27 104 -138 134 -196 64 -128 97 -321 82 -474 -22
-204 -106 -379 -254 -527 -148 -148 -323 -232 -527 -254 -153 -15 -346 18
-474 82 -188 95 -355 276 -429 466 -83 211 -78 476 12 675 89 194 253 360 444
446 299 135 682 81 921 -129 l48 -43 16 22 c8 12 35 41 60 65 l44 43 -48 40
c-159 131 -322 206 -518 238 -447 73 -892 -154 -1099 -558 -193 -380 -139
-833 140 -1161 33 -39 90 -96 125 -125 87 -72 95 -79 166 -152 95 -99 143
-143 143 -131 0 6 -12 20 -27 32 -16 11 -35 33 -44 48 -9 15 -21 27 -25 26 -5
-1 -29 19 -54 43 l-45 44 60 -29 c33 -16 94 -42 135 -56 504 -182 1062 41
1298 519 78 159 106 279 106 465 1 181 -24 292 -106 470 l-38 85 43 -45 c24
-25 42 -48 40 -52 -2 -5 0 -8 5 -8 13 0 53 -36 46 -42 -2 -3 4 -8 16 -11 18
-5 17 -2 -7 26 -16 18 -57 59 -93 92 -36 33 -76 74 -90 91 -14 17 -43 53 -64
78 l-39 47 43 44 c44 45 45 45 114 45 l69 0 108 107 c60 58 106 110 103 115
-3 5 -30 6 -60 2 -55 -6 -68 2 -39 26 9 7 13 15 10 18 -3 3 2 14 12 24 9 11
11 18 5 18 -7 0 -12 -5 -12 -10z m10 -114 c0 -15 -120 -135 -150 -151 -14 -7
-42 -15 -64 -18 l-39 -6 24 27 c13 15 59 62 101 104 73 74 78 77 102 66 15 -6
26 -16 26 -22z m-963 -991 c6 -37 -22 -129 -37 -123 -14 5 -100 89 -100 97 0
5 23 30 51 55 50 46 52 46 66 26 8 -11 17 -36 20 -55z"/>
<path d="M1355 2184 c-38 -8 -113 -35 -165 -61 -172 -83 -318 -260 -365 -442
-63 -243 2 -484 179 -669 99 -103 186 -167 249 -183 60 -15 71 -7 19 14 -68
27 -134 75 -216 155 -162 159 -226 302 -226 504 0 195 57 328 208 481 124 126
276 187 465 187 146 0 249 -32 377 -117 36 -24 72 -43 80 -43 30 1 -66 72
-155 115 -147 71 -296 91 -450 59z"/>
<path d="M1413 1855 c-133 -36 -216 -113 -259 -242 -25 -73 -26 -83 -16 -155
13 -93 45 -159 104 -214 50 -47 135 -103 169 -110 70 -15 205 1 234 27 17 17
40 9 78 -27 28 -27 36 -31 34 -16 -1 10 -13 31 -25 47 -25 32 -28 45 -8 45 20
0 83 69 105 116 33 70 41 106 41 191 0 82 -1 86 -40 144 -23 32 -43 59 -45 59
-2 0 10 -30 27 -66 116 -248 -65 -520 -335 -502 -125 8 -248 93 -300 206 -31
67 -31 217 0 284 30 66 105 143 172 175 49 25 68 28 151 28 86 0 101 -3 155
-30 78 -39 79 -40 71 -26 -13 21 -101 59 -161 70 -73 14 -87 13 -152 -4z"/>
<path d="M1971 1727 c16 -30 36 -89 45 -133 20 -95 9 -199 -30 -296 -14 -34
-19 -55 -11 -47 20 21 52 125 60 195 10 84 -9 197 -46 272 -17 34 -34 62 -39
62 -4 0 5 -24 21 -53z"/>
<path d="M1409 1647 c-55 -37 -79 -81 -79 -146 0 -65 20 -105 74 -146 32 -24
42 -26 100 -24 l65 4 56 -55 c43 -43 57 -52 67 -42 10 10 2 22 -35 60 l-47 47
-67 -2 c-76 -2 -92 5 -147 59 -71 71 -57 164 35 225 32 21 47 25 86 20 26 -3
49 -10 51 -16 5 -14 29 -14 37 -1 10 17 -52 40 -108 40 -40 0 -63 -6 -88 -23z"/>
<path d="M1871 1128 c-25 -27 -38 -46 -30 -42 16 7 84 83 78 87 -2 2 -24 -19
-48 -45z"/>
<path d="M1775 1050 c-46 -30 -128 -59 -205 -71 -95 -14 -194 1 -282 44 -38
18 -68 30 -68 26 0 -4 28 -21 63 -38 124 -61 298 -63 429 -4 46 20 61 23 72
13 9 -6 20 -8 27 -4 8 5 7 10 -5 16 -14 8 -15 13 -5 24 16 19 10 18 -26 -6z"/>
</g>
</svg>
